<?xml version="1.0" encoding="UTF-8" standalone="no"?><!DOCTYPE svg PUBLIC "-//W3C//DTD SVG 1.1//EN" "http://www.w3.org/Graphics/SVG/1.1/DTD/svg11.dtd"><svg width="100%" height="100%" viewBox="0 0 200 200" version="1.1" xmlns="http://www.w3.org/2000/svg" xmlns:xlink="http://www.w3.org/1999/xlink" xml:space="preserve" xmlns:serif="http://www.serif.com/" style="fill-rule:evenodd;clip-rule:evenodd;stroke-linejoin:round;"><rect x="0" y="0" width="200" height="200" style="fill:#030508;"/><g opacity="0.22"><circle cx="24" cy="22" r="1" style="fill:#fff;"/><circle cx="30" cy="168" r="0.8" style="fill:#fff;"/><circle cx="12" cy="95" r="0.8" style="fill:#fff;"/><circle cx="180" cy="170" r="1" style="fill:#fff;"/><circle cx="186" cy="115" r="0.7" style="fill:#fff;"/><circle cx="95" cy="186" r="0.8" style="fill:#fff;"/><circle cx="85" cy="99" r="0.7" style="fill:#fff;"/><circle cx="22" cy="140" r="0.6" style="fill:#fff;"/></g><g><path d="M37,43l10,-20l20,-2l18,12l2,22l-14,16l-26,-4l-10,-24Z" style="fill:none;fill-rule:nonzero;stroke:#fff;stroke-width:2.5px;"/><circle cx="65" cy="43" r="8" style="fill:none;stroke:#fff;stroke-opacity:0.45;stroke-width:1.5px;stroke-linejoin:miter;"/></g><g><path d="M88.493,130.731l-30.07,29.543l2.705,-11.903l-4.532,-11.111l-10.258,-6.616l42.154,0.087Z" style="fill:none;fill-rule:nonzero;stroke:#f33;stroke-width:2.8px;stroke-linecap:round;"/></g><g><path d="M125.818,97.634l42.144,0.921l-10.413,6.369l-4.796,11l2.42,11.964l-29.355,-30.254Z" style="fill:none;fill-rule:nonzero;stroke:#4af;stroke-width:2.8px;stroke-linecap:round;"/><path d="M110.47,90.797l3.544,1.577" style="fill:none;stroke:#4af;stroke-width:2.8px;stroke-linecap:round;stroke-miterlimit:1.5;"/></g></svg>